<?xml version="1.0" encoding="UTF-8" standalone="no"?>
<svg
   xmlns:dc="http://purl.org/dc/elements/1.1/"
   xmlns:cc="http://creativecommons.org/ns#"
   xmlns:rdf="http://www.w3.org/1999/02/22-rdf-syntax-ns#"
   xmlns:svg="http://www.w3.org/2000/svg"
   xmlns="http://www.w3.org/2000/svg"
   xmlns:sodipodi="http://sodipodi.sourceforge.net/DTD/sodipodi-0.dtd"
   xmlns:inkscape="http://www.inkscape.org/namespaces/inkscape"
   version="1.1"
   x="0px"
   y="0px"
   viewBox="0 0 755.15283 730.47064"
   enable-background="new 0 0 800 800"
   xml:space="preserve"
   id="svg2"
   inkscape:version="0.91 r13725"
   sodipodi:docname="Noun_Astronomy_Icon.svg"
   width="755.15283"
   height="730.47064"><metadata
     id="metadata22"><rdf:RDF><cc:Work
         rdf:about=""><dc:format>image/svg+xml</dc:format><dc:type
           rdf:resource="http://purl.org/dc/dcmitype/StillImage" /><dc:title></dc:title></cc:Work></rdf:RDF></metadata><defs
     id="defs20" /><sodipodi:namedview
     pagecolor="#ffffff"
     bordercolor="#666666"
     borderopacity="1"
     objecttolerance="10"
     gridtolerance="10"
     guidetolerance="10"
     inkscape:pageopacity="0"
     inkscape:pageshadow="2"
     inkscape:window-width="1317"
     inkscape:window-height="744"
     id="namedview18"
     showgrid="false"
     fit-margin-top="1"
     fit-margin-left="1"
     fit-margin-bottom="1"
     fit-margin-right="1"
     inkscape:zoom="0.236"
     inkscape:cx="381.8141"
     inkscape:cy="244.04856"
     inkscape:window-x="49"
     inkscape:window-y="24"
     inkscape:window-maximized="1"
     inkscape:current-layer="svg2" /><g
     id="g4"
     transform="translate(-22.423192,-34.764357)"><path
       d="M 774.665,181.546 711.336,47.239 c -4.71,-9.989 -16.628,-14.271 -26.619,-9.56 l -316.45,149.214 80.378,170.491 316.461,-149.219 c 4.797,-2.263 8.5,-6.338 10.293,-11.33 1.793,-4.992 1.529,-10.49 -0.734,-15.289 z"
       id="path6"
       inkscape:connector-curvature="0" /><path
       d="M 171.854,320.106 34.898,384.688 c -9.99,4.712 -14.271,16.629 -9.56,26.62 l 32.005,67.873 c 3.412,7.234 10.602,11.475 18.104,11.475 2.857,0 5.761,-0.615 8.516,-1.915 L 220.92,424.163 171.854,320.106 Z"
       id="path8"
       inkscape:connector-curvature="0" /><path
       d="m 340.947,222.597 -139.771,65.906 62.782,133.146 139.771,-65.907 0.273,0.581 c 0.005,0.01 0.01,0.019 0.015,0.028 l -63.07,-133.754 z"
       id="path10"
       inkscape:connector-curvature="0" /><path
       d="m 576.271,735.54 -148.227,-307.231 51.088,0 c 11.046,0 20,-8.954 20,-20 l 0,-14.809 0,-26.45 L 371.96,428.309 223.73,735.54 c -4.799,9.948 -0.625,21.903 9.322,26.703 2.803,1.353 5.762,1.992 8.678,1.992 7.436,0 14.578,-4.167 18.027,-11.314 l 120.244,-249.229 0,240.538 c 0,11.046 8.954,20 20,20 11.046,0 20,-8.954 20,-20 l 0,-240.538 120.244,249.229 c 3.448,7.147 10.59,11.314 18.027,11.314 2.914,0 5.875,-0.641 8.676,-1.992 9.949,-4.799 14.123,-16.755 9.323,-26.703 z"
       id="path12"
       inkscape:connector-curvature="0" /></g></svg>